<?xml version="1.0" encoding="utf-8"?>
<!-- Generator: Adobe Illustrator 21.0.0, SVG Export Plug-In . SVG Version: 6.00 Build 0)  -->
<svg version="1.1" id="레이어_1" xmlns="http://www.w3.org/2000/svg" xmlns:xlink="http://www.w3.org/1999/xlink" x="0px"
	 y="0px" viewBox="0 0 198.4 198.4" style="enable-background:new 0 0 198.4 198.4;" xml:space="preserve">
<style type="text/css">
	.st0{opacity:0.5;}
	.st1{fill:#4848FF;}
	.st2{fill:#4848FF;}
	.st3{fill:#4848FF;}
	.st4{clip-path:url(#4848FF2_);}
	.st5{fill:#4848FF;}
	.st6{fill:#4848FF;}
	.st7{fill:#4848FF;}
	.st8{fill:#4848FF;}
	.st9{fill:#4848FF;}
	.st10{fill:#4848FF;}
	.st11{fill:#4848FF;}
	.st12{fill:#4848FF;}
	.st13{fill:#4848FF;}
	.st14{fill:#4848FF;}
	.st15{fill:#4848FF;}
	.st16{fill:#4848FF;}
	.st17{fill:#4848FF;}
	.st18{fill:#4848FF;}
	.st19{fill:#4848FF;}
	.st20{fill:#4848FF;}
	.st21{fill:#4848FF;}
	.st22{fill:#4848FF;}
	.st23{fill:#4848FF;}
	.st24{fill:#4848FF;}
	.st25{fill:#4848FF;}
	.st26{fill:#4848FF;}
	.st27{fill:#4848FF;}
	.st28{fill:#4848FF;}
	.st29{fill:#4848FF;}
	.st30{fill:#4848FF;}
	.st31{fill:#4848FF;}
	.st32{fill:#4848FF;}
	.st33{fill:#4848FF;}
	.st34{fill:#4848FF;}
	.st35{fill:#4848FF;}
	.st36{fill:#4848FF;}
	.st37{fill:#4848FF;}
	.st38{fill:#4848FF;}
	.st39{fill:#4848FF;}
	.st40{fill:#4848FF;}
	.st41{fill:#4848FF;}
	.st42{fill:#4848FF;}
	.st43{fill:#4848FF;}
	.st44{fill:#4848FF;}
	.st45{fill:#4848FF;}
	.st46{fill:#4848FF;}
	.st47{fill:#4848FF;}
	.st48{fill:#4848FF;}
	.st49{fill:#4848FF;}
	.st50{fill:#4848FF;}
	.st51{fill:#4848FF;}
	.st52{fill:#4848FF;}
	.st53{fill:#4848FF;}
	.st54{fill:#4848FF;}
	.st55{fill:#4848FF;}
	.st56{fill:#4848FF;}
	.st57{fill:#4848FF;}
	.st58{fill:#4848FF;}
	.st59{fill:#4848FF;}
	.st60{fill:#4848FF;}
	.st61{fill:#4848FF;}
	.st62{fill:#4848FF;}
	.st63{fill:#4848FF;}
	.st64{fill:#4848FF;}
	.st65{fill:#4848FF;}
	.st66{fill:#4848FF;}
	.st67{fill:#4848FF;}
	.st68{fill:#4848FF;}
	.st69{fill:#4848FF;}
	.st70{fill:#4848FF;}
	.st71{fill:#4848FF;}
	.st72{fill:#4848FF;}
	.st73{fill:#4848FF;}
	.st74{fill:#4848FF;}
	.st75{fill:#4848FF;}
	.st76{fill:#4848FF;}
	.st77{fill:#4848FF;}
	.st78{fill:#4848FF;}
	.st79{fill:#4848FF;}
	.st80{fill:#4848FF;}
	.st81{fill:#4848FF;}
	.st82{fill:#4848FF;}
	.st83{fill:#4848FF;}
	.st84{fill:#4848FF;}
	.st85{fill:#4848FF;}
	.st86{fill:#4848FF;}
	.st87{fill:#4848FF;}
	.st88{fill:#4848FF;}
	.st89{fill:#4848FF;}
	.st90{fill:#4848FF;}
	.st91{fill:#4848FF;}
	.st92{fill:#4848FF;}
	.st93{fill:#4848FF;}
	.st94{fill:#4848FF;}
	.st95{fill:#4848FF;}
	.st96{fill:#4848FF;}
	.st97{fill:#4848FF;}
	.st98{fill:#4848FF;}
	.st99{fill:#4848FF;}
	.st100{fill:#4848FF;}
	.st101{fill:#4848FF;}
	.st102{fill:#4848FF;}
	.st103{fill:#4848FF;}
	.st104{fill:#4848FF;}
	.st105{fill:#4848FF;}
	.st106{fill:#4848FF;}
	.st107{fill:#4848FF;}
	.st108{fill:#4848FF;}
	.st109{fill:#4848FF;}
	.st110{fill:#4848FF;}
	.st111{fill:#4848FF;}
	.st112{fill:#4848FF;}
	.st113{fill:#4848FF;}
	.st114{fill:#4848FF;}
	.st115{fill:#4848FF;}
	.st116{fill:#4848FF;}
	.st117{fill:#4848FF;}
	.st118{fill:#4848FF;}
	.st119{fill:#4848FF;}
	.st120{fill:#4848FF;}
	.st121{fill:#4848FF;}
	.st122{fill:#4848FF;}
	.st123{fill:#4848FF;}
	.st124{fill:#4848FF;}
	.st125{fill:#4848FF;}
	.st126{fill:#4848FF;}
	.st127{fill:#4848FF;}
	.st128{fill:#4848FF;}
	.st129{fill:#4848FF;}
	.st130{fill:#4848FF;}
	.st131{fill:#4848FF;}
	.st132{fill:#4848FF;}
	.st133{fill:#4848FF;}
	.st134{fill:#4848FF;}
	.st135{fill:#4848FF;}
	.st136{fill:#4848FF;}
	.st137{fill:#4848FF;}
	.st138{fill:#4848FF;}
	.st139{fill:#4848FF;}
	.st140{fill:#4848FF;}
	.st141{fill:#4848FF;}
	.st142{fill:#4848FF;}
	.st143{fill:#4848FF;}
	.st144{fill:#4848FF;}
	.st145{fill:#4848FF;}
	.st146{fill:#4848FF;}
	.st147{fill:#4848FF;}
	.st148{fill:#4848FF;}
	.st149{fill:#4848FF;}
	.st150{fill:#4848FF;}
	.st151{fill:#4848FF;}
	.st152{fill:#4848FF;}
	.st153{fill:#4848FF;}
	.st154{fill:#4848FF;}
	.st155{fill:#4848FF;}
	.st156{fill:#4848FF;}
	.st157{fill:#4848FF;}
	.st158{fill:#4848FF;}
	.st159{fill:#4848FF;}
	.st160{fill:#4848FF;}
	.st161{fill:#4848FF;}
	.st162{fill:#4848FF;}
	.st163{fill:#4848FF;}
	.st164{fill:#4848FF;}
	.st165{fill:#4848FF;}
	.st166{fill:#4848FF;}
	.st167{fill:#4848FF;}
	.st168{fill:#4848FF;}
	.st169{fill:#4848FF;}
	.st170{fill:#4848FF;}
	.st171{fill:#4848FF;}
	.st172{fill:#4848FF;}
	.st173{fill:#4848FF;}
</style>
<g>
	<g class="st0">
		<g>
			<g>
				<polygon class="st1" points="61.9,141.9 55.8,123.2 55.9,123.1 72,104.6 51.8,86.2 52.1,85.9 72.7,104.6 56.3,123.3 62.3,141.8 
									"/>
			</g>
		</g>
		<g>
			<g>
				<polygon class="st1" points="73.4,141.2 59.6,123.3 59.7,123.1 67.5,104.6 57.8,86.1 58.2,85.9 68.1,104.6 68,104.7 60.2,123.2 
					73.8,140.9 				"/>
			</g>
		</g>
		<g>
			<g>
				<polygon class="st1" points="71.8,141.8 53.5,123.2 73.3,104.6 65.8,86.1 66.3,85.9 73.8,104.7 54.2,123.2 72.1,141.5 				"/>
			</g>
		</g>
		<g>
			<g>
				<polygon class="st1" points="55.2,141.9 54.8,141.7 65.1,123.3 56.7,104.6 70.6,85.9 71,86.2 57.3,104.7 65.6,123.3 65.6,123.4 
									"/>
			</g>
		</g>
		<g>
			<g>
				<polygon class="st1" points="72.5,141.6 61.6,123.2 61.6,123.1 69.6,104.2 53.7,86.2 54,85.9 70.2,104.1 62.1,123.2 72.9,141.4 
									"/>
			</g>
		</g>
		<g>
			<g>
				<polygon class="st1" points="57.2,141.9 56.8,141.8 62.9,123.3 56.1,104.6 56.2,104.5 64.6,85.9 65,86.1 56.6,104.6 63.4,123.3 
									"/>
			</g>
		</g>
		<g>
			<g>
				<polygon class="st1" points="54,142 53.6,141.7 67.3,123.1 61.5,104.1 61.5,104 68.2,86.4 68.6,86.6 62,104.1 67.8,123.2 
					67.7,123.3 				"/>
			</g>
		</g>
		<g>
			<g>
				<polygon class="st1" points="52.1,142 51.7,141.7 67.3,123.1 59.9,104.1 59.9,104 73.4,85.9 73.7,86.2 60.4,104.2 67.8,123.2 
									"/>
			</g>
		</g>
		<g>
			<g>
				<polygon class="st1" points="72.5,141.7 57.7,123.2 57.8,123.1 72.3,104.6 56.2,86.2 56.6,85.9 72.9,104.6 72.8,104.8 
					58.3,123.2 72.9,141.4 				"/>
			</g>
		</g>
		<g>
			<g>
				<polygon class="st2" points="76.4,141.8 61,123.5 73.5,104.6 61.1,86.2 61.5,85.9 74.1,104.6 74,104.8 61.6,123.4 76.8,141.5 
									"/>
			</g>
		</g>
		<g>
			<g>
				<polygon class="st2" points="75.3,141.8 56.9,123.2 57.1,123.1 72.3,104.6 54.8,86.2 55.2,85.9 73,104.6 57.6,123.2 75.6,141.5 
									"/>
			</g>
		</g>
		<g>
			<g>
				<polygon class="st2" points="73.8,141.7 55.2,123.2 55.4,123.1 72.8,104.6 56.7,86.2 57,85.9 73.4,104.6 55.9,123.2 74.1,141.3 
									"/>
			</g>
		</g>
		<g>
			<g>
				<polygon class="st2" points="54,142 53.6,141.7 66.4,123.2 61.2,104.6 61.3,104.5 72.1,85.9 72.5,86.1 61.7,104.7 66.9,123.3 
					66.9,123.4 				"/>
			</g>
		</g>
		<g>
			<g>
				<polygon class="st2" points="58.6,142.1 58.2,141.9 67.5,123.2 58.1,104.6 71.7,85.9 72.1,86.2 58.6,104.6 68,123.2 67.9,123.3 
									"/>
			</g>
		</g>
		<g>
			<g>
				<polygon class="st2" points="56.1,141.9 55.7,141.7 64,123.3 62.2,104.1 73.1,85.9 73.5,86.1 62.7,104.2 64.4,123.4 64.4,123.4 
									"/>
			</g>
		</g>
		<g>
			<g>
				<polygon class="st3" points="74.5,141.8 60.1,123.3 60.2,123.1 69.4,104.6 60.2,86.1 60.6,85.9 70,104.6 60.7,123.2 74.9,141.5 
									"/>
			</g>
		</g>
		<g>
			<g>
				<polygon class="st3" points="69.6,141.6 65.6,123.4 59.9,104.1 70.3,85.9 70.7,86.1 60.4,104.1 66.1,123.3 70,141.5 				"/>
			</g>
		</g>
		<g>
			<g>
				<polygon class="st3" points="68.5,141.6 54.2,123.1 54.3,123 65.3,104.5 72.7,85.9 73.1,86.1 65.8,104.7 54.8,123.1 68.9,141.4 
									"/>
			</g>
		</g>
		<g>
			<g>
				<polygon class="st3" points="55.2,141.9 54.8,141.7 64.9,122.9 63,104.7 59,86.1 59.5,86 63.4,104.6 65.4,123 				"/>
			</g>
		</g>
		<g>
			<g>
				<polygon class="st3" points="74,141.6 62.5,123.3 62.6,123.2 70.6,104.6 67.6,86.3 68,86.2 71.1,104.7 71,104.7 63,123.3 
					74.4,141.4 				"/>
			</g>
		</g>
	</g>
	<g class="st0">
		<g>
			<g>
				<polygon class="st1" points="66.4,123.5 66,123.3 72.6,104.8 54.6,86.1 77.3,67.4 77.6,67.8 55.4,86.2 73.2,104.7 				"/>
			</g>
		</g>
		<g>
			<g>
				<polygon class="st1" points="53.8,122.7 53.4,122.4 68.4,104.7 59.7,86.2 70.5,67.4 71,67.7 60.3,86.2 68.9,104.8 				"/>
			</g>
		</g>
		<g>
			<g>
				<polygon class="st1" points="55.6,123.4 55.2,123 74.9,104.8 53.4,86.2 61.7,67.5 62.1,67.7 54,86.1 75.7,104.8 				"/>
			</g>
		</g>
		<g>
			<g>
				<polygon class="st1" points="73.8,123.5 62.4,104.9 62.4,104.8 71.5,86.2 56.5,67.7 56.8,67.4 72.1,86.1 72,86.3 62.9,104.8 
					74.2,123.2 				"/>
			</g>
		</g>
		<g>
			<g>
				<polygon class="st1" points="54.8,123.2 54.4,122.9 66.2,104.8 57.4,85.7 57.5,85.5 75.1,67.4 75.5,67.7 58,85.8 66.8,104.8 
									"/>
			</g>
		</g>
		<g>
			<g>
				<polygon class="st1" points="71.6,123.5 64.8,104.9 72.2,86.2 63.1,67.7 63.5,67.5 72.8,86.2 65.3,104.9 72,123.3 				"/>
			</g>
		</g>
		<g>
			<g>
				<polygon class="st1" points="75.1,123.5 60,104.7 66.4,85.7 59.1,68.1 59.6,67.9 66.9,85.7 66.8,85.7 60.6,104.6 75.5,123.2 
									"/>
			</g>
		</g>
		<g>
			<g>
				<polygon class="st1" points="77.2,123.5 60,104.7 60.1,104.6 68.1,85.7 53.5,67.7 53.9,67.4 68.7,85.6 68.6,85.8 60.6,104.6 
					77.6,123.2 				"/>
			</g>
		</g>
		<g>
			<g>
				<polygon class="st1" points="54.8,123.2 54.4,122.9 70.4,104.8 54.3,86.2 72.3,67.4 72.7,67.7 55,86.2 71.1,104.8 				"/>
			</g>
		</g>
		<g>
			<g>
				<polygon class="st2" points="50.5,123.4 50.2,123.1 66.8,105 53.1,86.2 53.2,86 66.9,67.4 67.3,67.7 53.7,86.2 67.4,105 
					67.3,105.2 				"/>
			</g>
		</g>
		<g>
			<g>
				<polygon class="st2" points="51.8,123.4 51.4,123 71.2,104.8 54.3,86.2 73.9,67.4 74.2,67.7 55,86.2 71.9,104.8 71.7,104.9 				
					"/>
			</g>
		</g>
		<g>
			<g>
				<polygon class="st2" points="53.4,123.2 53.1,122.9 73.1,104.8 53.8,86.2 71.8,67.4 72.2,67.7 54.5,86.2 73.8,104.8 				"/>
			</g>
		</g>
		<g>
			<g>
				<polygon class="st2" points="75.1,123.5 60.9,104.8 61,104.7 66.7,86.2 54.8,67.7 55.2,67.4 67.2,86.1 67.1,86.2 61.5,104.7 
					75.5,123.2 				"/>
			</g>
		</g>
		<g>
			<g>
				<polygon class="st2" points="70.1,123.7 59.8,104.8 59.9,104.7 70,86.2 55.3,67.7 55.7,67.4 70.6,86.1 70.5,86.3 60.3,104.8 
					70.5,123.4 				"/>
			</g>
		</g>
		<g>
			<g>
				<polygon class="st2" points="72.8,123.5 63.7,104.9 63.7,104.8 65.6,85.7 53.8,67.7 54.2,67.4 66.1,85.6 66.1,85.7 64.2,104.8 
					73.2,123.3 				"/>
			</g>
		</g>
		<g>
			<g>
				<polygon class="st3" points="52.6,123.4 52.2,123.1 67.8,104.7 57.6,86.2 57.7,86.1 67.9,67.4 68.3,67.7 58.2,86.2 68.4,104.8 
									"/>
			</g>
		</g>
		<g>
			<g>
				<polygon class="st3" points="58,123.1 57.6,123 61.9,104.8 68.1,85.7 56.8,67.7 57.2,67.4 68.7,85.6 68.6,85.7 62.3,104.9 				
					"/>
			</g>
		</g>
		<g>
			<g>
				<polygon class="st3" points="59.2,123.2 58.8,122.9 74.3,104.6 62.2,86.3 54.2,67.7 54.6,67.5 62.7,86.1 74.9,104.6 74.8,104.8 
									"/>
			</g>
		</g>
		<g>
			<g>
				<polygon class="st3" points="73.8,123.5 62.6,104.5 62.7,104.5 64.8,86.1 69.1,67.5 69.6,67.6 65.3,86.2 63.1,104.4 74.2,123.2 
									"/>
			</g>
		</g>
		<g>
			<g>
				<polygon class="st3" points="53.2,123.2 52.8,122.9 65.2,104.8 56.4,86.2 56.4,86.1 59.7,67.8 60.2,67.8 56.9,86.1 65.8,104.9 
					65.7,105 				"/>
			</g>
		</g>
	</g>
	<g>
		<g>
			<g>
				<defs>
					<path id="SVGID_1_" d="M75.4,55.9h-24c-1,0-1.8-0.7-1.8-1.6s0.8-1.6,1.8-1.6h24c1,0,1.8,0.7,1.8,1.6S76.4,55.9,75.4,55.9z"/>
				</defs>
				<clipPath id="SVGID_2_">
					<use xlink:href="#4848FF1_"  style="overflow:visible;"/>
				</clipPath>
				<g class="st4">
					<path class="st5" d="M49.7,52.6v3.3V52.6z"/>
				</g>
				<g class="st4">
					<rect x="49.7" y="52.6" class="st5" width="0.1" height="3.3"/>
				</g>
				<g class="st4">
					<rect x="49.8" y="52.6" class="st5" width="0.1" height="3.3"/>
				</g>
				<g class="st4">
					<rect x="50" y="52.6" class="st5" width="0.1" height="3.3"/>
				</g>
				<g class="st4">
					<rect x="50.1" y="52.6" class="st5" width="0.1" height="3.3"/>
				</g>
				<g class="st4">
					<rect x="50.3" y="52.6" class="st5" width="0.1" height="3.3"/>
				</g>
				<g class="st4">
					<rect x="50.4" y="52.6" class="st5" width="0.1" height="3.3"/>
				</g>
				<g class="st4">
					<rect x="50.6" y="52.6" class="st6" width="0.1" height="3.3"/>
				</g>
				<g class="st4">
					<rect x="50.7" y="52.6" class="st7" width="0.1" height="3.3"/>
				</g>
				<g class="st4">
					<rect x="50.8" y="52.6" class="st7" width="0.1" height="3.3"/>
				</g>
				<g class="st4">
					<rect x="51" y="52.6" class="st7" width="0.1" height="3.3"/>
				</g>
				<g class="st4">
					<rect x="51.1" y="52.6" class="st7" width="0.1" height="3.3"/>
				</g>
				<g class="st4">
					<rect x="51.3" y="52.6" class="st7" width="0.1" height="3.3"/>
				</g>
				<g class="st4">
					<rect x="51.4" y="52.6" class="st8" width="0.1" height="3.3"/>
				</g>
				<g class="st4">
					<rect x="51.6" y="52.6" class="st9" width="0.1" height="3.3"/>
				</g>
				<g class="st4">
					<rect x="51.7" y="52.6" class="st9" width="0.1" height="3.3"/>
				</g>
				<g class="st4">
					<rect x="51.9" y="52.6" class="st10" width="0.1" height="3.3"/>
				</g>
				<g class="st4">
					<rect x="52" y="52.6" class="st10" width="0.1" height="3.3"/>
				</g>
				<g class="st4">
					<rect x="52.1" y="52.6" class="st10" width="0.1" height="3.3"/>
				</g>
				<g class="st4">
					<rect x="52.3" y="52.6" class="st11" width="0.1" height="3.3"/>
				</g>
				<g class="st4">
					<rect x="52.4" y="52.6" class="st12" width="0.1" height="3.3"/>
				</g>
				<g class="st4">
					<rect x="52.6" y="52.6" class="st12" width="0.1" height="3.3"/>
				</g>
				<g class="st4">
					<rect x="52.7" y="52.6" class="st13" width="0.1" height="3.3"/>
				</g>
				<g class="st4">
					<rect x="52.9" y="52.6" class="st14" width="0.1" height="3.3"/>
				</g>
				<g class="st4">
					<rect x="53" y="52.6" class="st14" width="0.1" height="3.3"/>
				</g>
				<g class="st4">
					<rect x="53.1" y="52.6" class="st15" width="0.1" height="3.3"/>
				</g>
				<g class="st4">
					<rect x="53.3" y="52.6" class="st16" width="0.1" height="3.3"/>
				</g>
				<g class="st4">
					<rect x="53.4" y="52.6" class="st16" width="0.1" height="3.3"/>
				</g>
				<g class="st4">
					<rect x="53.6" y="52.6" class="st17" width="0.1" height="3.3"/>
				</g>
				<g class="st4">
					<rect x="53.7" y="52.6" class="st18" width="0.1" height="3.3"/>
				</g>
				<g class="st4">
					<rect x="53.9" y="52.6" class="st19" width="0.1" height="3.3"/>
				</g>
				<g class="st4">
					<rect x="54" y="52.6" class="st20" width="0.1" height="3.3"/>
				</g>
				<g class="st4">
					<rect x="54.2" y="52.6" class="st21" width="0.1" height="3.3"/>
				</g>
				<g class="st4">
					<rect x="54.3" y="52.6" class="st21" width="0.1" height="3.3"/>
				</g>
				<g class="st4">
					<rect x="54.4" y="52.6" class="st22" width="0.1" height="3.3"/>
				</g>
				<g class="st4">
					<rect x="54.6" y="52.6" class="st22" width="0.1" height="3.3"/>
				</g>
				<g class="st4">
					<rect x="54.7" y="52.6" class="st23" width="0.1" height="3.3"/>
				</g>
				<g class="st4">
					<rect x="54.9" y="52.6" class="st23" width="0.1" height="3.3"/>
				</g>
				<g class="st4">
					<rect x="55" y="52.6" class="st24" width="0.1" height="3.3"/>
				</g>
				<g class="st4">
					<rect x="55.2" y="52.6" class="st25" width="0.1" height="3.3"/>
				</g>
				<g class="st4">
					<rect x="55.3" y="52.6" class="st26" width="0.1" height="3.3"/>
				</g>
				<g class="st4">
					<rect x="55.4" y="52.6" class="st27" width="0.1" height="3.3"/>
				</g>
				<g class="st4">
					<rect x="55.6" y="52.6" class="st28" width="0.1" height="3.3"/>
				</g>
				<g class="st4">
					<rect x="55.7" y="52.6" class="st29" width="0.1" height="3.3"/>
				</g>
				<g class="st4">
					<rect x="55.9" y="52.6" class="st29" width="0.1" height="3.3"/>
				</g>
				<g class="st4">
					<rect x="56" y="52.6" class="st30" width="0.1" height="3.3"/>
				</g>
				<g class="st4">
					<rect x="56.2" y="52.6" class="st30" width="0.1" height="3.3"/>
				</g>
				<g class="st4">
					<rect x="56.3" y="52.6" class="st31" width="0.1" height="3.3"/>
				</g>
				<g class="st4">
					<rect x="56.5" y="52.6" class="st32" width="0.1" height="3.3"/>
				</g>
				<g class="st4">
					<rect x="56.6" y="52.6" class="st33" width="0.1" height="3.3"/>
				</g>
				<g class="st4">
					<rect x="56.7" y="52.6" class="st34" width="0.1" height="3.3"/>
				</g>
				<g class="st4">
					<rect x="56.9" y="52.6" class="st35" width="0.1" height="3.3"/>
				</g>
				<g class="st4">
					<rect x="57" y="52.6" class="st35" width="0.1" height="3.3"/>
				</g>
				<g class="st4">
					<rect x="57.2" y="52.6" class="st36" width="0.1" height="3.3"/>
				</g>
				<g class="st4">
					<rect x="57.3" y="52.6" class="st37" width="0.1" height="3.3"/>
				</g>
				<g class="st4">
					<rect x="57.5" y="52.6" class="st38" width="0.1" height="3.3"/>
				</g>
				<g class="st4">
					<rect x="57.6" y="52.6" class="st39" width="0.1" height="3.3"/>
				</g>
				<g class="st4">
					<rect x="57.8" y="52.6" class="st40" width="0.1" height="3.3"/>
				</g>
				<g class="st4">
					<rect x="57.9" y="52.6" class="st41" width="0.1" height="3.3"/>
				</g>
				<g class="st4">
					<rect x="58" y="52.6" class="st41" width="0.1" height="3.3"/>
				</g>
				<g class="st4">
					<rect x="58.2" y="52.6" class="st42" width="0.1" height="3.3"/>
				</g>
				<g class="st4">
					<rect x="58.3" y="52.6" class="st43" width="0.1" height="3.3"/>
				</g>
				<g class="st4">
					<rect x="58.5" y="52.6" class="st44" width="0.1" height="3.3"/>
				</g>
				<g class="st4">
					<rect x="58.6" y="52.6" class="st45" width="0.1" height="3.3"/>
				</g>
				<g class="st4">
					<rect x="58.8" y="52.6" class="st46" width="0.1" height="3.3"/>
				</g>
				<g class="st4">
					<rect x="58.9" y="52.6" class="st47" width="0.1" height="3.3"/>
				</g>
				<g class="st4">
					<rect x="59" y="52.6" class="st48" width="0.1" height="3.3"/>
				</g>
				<g class="st4">
					<rect x="59.2" y="52.6" class="st49" width="0.1" height="3.3"/>
				</g>
				<g class="st4">
					<rect x="59.3" y="52.6" class="st50" width="0.1" height="3.3"/>
				</g>
				<g class="st4">
					<rect x="59.5" y="52.6" class="st51" width="0.1" height="3.3"/>
				</g>
				<g class="st4">
					<rect x="59.6" y="52.6" class="st52" width="0.1" height="3.3"/>
				</g>
				<g class="st4">
					<rect x="59.8" y="52.6" class="st53" width="0.1" height="3.3"/>
				</g>
				<g class="st4">
					<rect x="59.9" y="52.6" class="st54" width="0.1" height="3.3"/>
				</g>
				<g class="st4">
					<rect x="60.1" y="52.6" class="st55" width="0.1" height="3.3"/>
				</g>
				<g class="st4">
					<rect x="60.2" y="52.6" class="st56" width="0.1" height="3.3"/>
				</g>
				<g class="st4">
					<rect x="60.3" y="52.6" class="st57" width="0.1" height="3.3"/>
				</g>
				<g class="st4">
					<rect x="60.5" y="52.6" class="st58" width="0.1" height="3.3"/>
				</g>
				<g class="st4">
					<rect x="60.6" y="52.6" class="st59" width="0.1" height="3.3"/>
				</g>
				<g class="st4">
					<rect x="60.8" y="52.6" class="st60" width="0.1" height="3.3"/>
				</g>
				<g class="st4">
					<rect x="60.9" y="52.6" class="st61" width="0.1" height="3.3"/>
				</g>
				<g class="st4">
					<rect x="61.1" y="52.6" class="st62" width="0.1" height="3.3"/>
				</g>
				<g class="st4">
					<rect x="61.2" y="52.6" class="st63" width="0.1" height="3.3"/>
				</g>
				<g class="st4">
					<rect x="61.4" y="52.6" class="st64" width="0.1" height="3.3"/>
				</g>
				<g class="st4">
					<rect x="61.5" y="52.6" class="st65" width="0.1" height="3.3"/>
				</g>
				<g class="st4">
					<rect x="61.6" y="52.6" class="st66" width="0.1" height="3.3"/>
				</g>
				<g class="st4">
					<rect x="61.8" y="52.6" class="st67" width="0.1" height="3.3"/>
				</g>
				<g class="st4">
					<rect x="61.9" y="52.6" class="st68" width="0.1" height="3.3"/>
				</g>
				<g class="st4">
					<rect x="62.1" y="52.6" class="st68" width="0.1" height="3.3"/>
				</g>
				<g class="st4">
					<rect x="62.2" y="52.6" class="st69" width="0.1" height="3.3"/>
				</g>
				<g class="st4">
					<rect x="62.4" y="52.6" class="st70" width="0.1" height="3.3"/>
				</g>
				<g class="st4">
					<rect x="62.5" y="52.6" class="st71" width="0.1" height="3.3"/>
				</g>
				<g class="st4">
					<rect x="62.6" y="52.6" class="st72" width="0.1" height="3.3"/>
				</g>
				<g class="st4">
					<rect x="62.8" y="52.6" class="st73" width="0.1" height="3.3"/>
				</g>
				<g class="st4">
					<rect x="62.9" y="52.6" class="st74" width="0.1" height="3.3"/>
				</g>
				<g class="st4">
					<rect x="63.1" y="52.6" class="st75" width="0.1" height="3.3"/>
				</g>
				<g class="st4">
					<rect x="63.2" y="52.6" class="st76" width="0.1" height="3.3"/>
				</g>
				<g class="st4">
					<rect x="63.4" y="52.6" class="st77" width="0.1" height="3.3"/>
				</g>
				<g class="st4">
					<rect x="63.5" y="52.6" class="st78" width="0.1" height="3.3"/>
				</g>
				<g class="st4">
					<rect x="63.7" y="52.6" class="st79" width="0.1" height="3.3"/>
				</g>
				<g class="st4">
					<rect x="63.8" y="52.6" class="st80" width="0.1" height="3.3"/>
				</g>
				<g class="st4">
					<rect x="63.9" y="52.6" class="st81" width="0.1" height="3.3"/>
				</g>
				<g class="st4">
					<rect x="64.1" y="52.6" class="st82" width="0.1" height="3.3"/>
				</g>
				<g class="st4">
					<rect x="64.2" y="52.6" class="st83" width="0.1" height="3.3"/>
				</g>
				<g class="st4">
					<rect x="64.4" y="52.6" class="st84" width="0.1" height="3.3"/>
				</g>
				<g class="st4">
					<rect x="64.5" y="52.6" class="st85" width="0.1" height="3.3"/>
				</g>
				<g class="st4">
					<rect x="64.7" y="52.6" class="st86" width="0.1" height="3.3"/>
				</g>
				<g class="st4">
					<rect x="64.8" y="52.6" class="st87" width="0.1" height="3.3"/>
				</g>
				<g class="st4">
					<rect x="64.9" y="52.6" class="st88" width="0.1" height="3.3"/>
				</g>
				<g class="st4">
					<rect x="65.1" y="52.6" class="st89" width="0.1" height="3.3"/>
				</g>
				<g class="st4">
					<rect x="65.2" y="52.6" class="st90" width="0.1" height="3.3"/>
				</g>
				<g class="st4">
					<rect x="65.4" y="52.6" class="st91" width="0.1" height="3.3"/>
				</g>
				<g class="st4">
					<rect x="65.5" y="52.6" class="st92" width="0.1" height="3.3"/>
				</g>
				<g class="st4">
					<rect x="65.7" y="52.6" class="st93" width="0.1" height="3.3"/>
				</g>
				<g class="st4">
					<rect x="65.8" y="52.6" class="st94" width="0.1" height="3.3"/>
				</g>
				<g class="st4">
					<rect x="66" y="52.6" class="st95" width="0.1" height="3.3"/>
				</g>
				<g class="st4">
					<rect x="66.1" y="52.6" class="st96" width="0.1" height="3.3"/>
				</g>
				<g class="st4">
					<rect x="66.2" y="52.6" class="st97" width="0.1" height="3.3"/>
				</g>
				<g class="st4">
					<rect x="66.4" y="52.6" class="st98" width="0.1" height="3.3"/>
				</g>
				<g class="st4">
					<rect x="66.5" y="52.6" class="st99" width="0.1" height="3.3"/>
				</g>
				<g class="st4">
					<rect x="66.7" y="52.6" class="st100" width="0.1" height="3.3"/>
				</g>
				<g class="st4">
					<rect x="66.8" y="52.6" class="st101" width="0.1" height="3.3"/>
				</g>
				<g class="st4">
					<rect x="67" y="52.6" class="st102" width="0.1" height="3.3"/>
				</g>
				<g class="st4">
					<rect x="67.1" y="52.6" class="st103" width="0.1" height="3.3"/>
				</g>
				<g class="st4">
					<rect x="67.3" y="52.6" class="st104" width="0.1" height="3.3"/>
				</g>
				<g class="st4">
					<rect x="67.4" y="52.6" class="st105" width="0.1" height="3.3"/>
				</g>
				<g class="st4">
					<rect x="67.5" y="52.6" class="st106" width="0.1" height="3.3"/>
				</g>
				<g class="st4">
					<rect x="67.7" y="52.6" class="st107" width="0.1" height="3.3"/>
				</g>
				<g class="st4">
					<rect x="67.8" y="52.6" class="st108" width="0.1" height="3.3"/>
				</g>
				<g class="st4">
					<rect x="68" y="52.6" class="st109" width="0.1" height="3.3"/>
				</g>
				<g class="st4">
					<rect x="68.1" y="52.6" class="st110" width="0.1" height="3.3"/>
				</g>
				<g class="st4">
					<rect x="68.3" y="52.6" class="st111" width="0.1" height="3.3"/>
				</g>
				<g class="st4">
					<rect x="68.4" y="52.6" class="st112" width="0.1" height="3.3"/>
				</g>
				<g class="st4">
					<rect x="68.5" y="52.6" class="st113" width="0.1" height="3.3"/>
				</g>
				<g class="st4">
					<rect x="68.7" y="52.6" class="st114" width="0.1" height="3.3"/>
				</g>
				<g class="st4">
					<rect x="68.8" y="52.6" class="st115" width="0.1" height="3.3"/>
				</g>
				<g class="st4">
					<rect x="69" y="52.6" class="st116" width="0.1" height="3.3"/>
				</g>
				<g class="st4">
					<rect x="69.1" y="52.6" class="st117" width="0.1" height="3.3"/>
				</g>
				<g class="st4">
					<rect x="69.3" y="52.6" class="st118" width="0.1" height="3.3"/>
				</g>
				<g class="st4">
					<rect x="69.4" y="52.6" class="st119" width="0.1" height="3.3"/>
				</g>
				<g class="st4">
					<rect x="69.6" y="52.6" class="st120" width="0.1" height="3.3"/>
				</g>
				<g class="st4">
					<rect x="69.7" y="52.6" class="st121" width="0.1" height="3.3"/>
				</g>
				<g class="st4">
					<rect x="69.8" y="52.6" class="st122" width="0.1" height="3.3"/>
				</g>
				<g class="st4">
					<rect x="70" y="52.6" class="st123" width="0.1" height="3.3"/>
				</g>
				<g class="st4">
					<rect x="70.1" y="52.6" class="st124" width="0.1" height="3.3"/>
				</g>
				<g class="st4">
					<rect x="70.3" y="52.6" class="st125" width="0.1" height="3.3"/>
				</g>
				<g class="st4">
					<rect x="70.4" y="52.6" class="st126" width="0.1" height="3.3"/>
				</g>
				<g class="st4">
					<rect x="70.6" y="52.6" class="st127" width="0.1" height="3.3"/>
				</g>
				<g class="st4">
					<rect x="70.7" y="52.6" class="st128" width="0.1" height="3.3"/>
				</g>
				<g class="st4">
					<rect x="70.9" y="52.6" class="st129" width="0.1" height="3.3"/>
				</g>
				<g class="st4">
					<rect x="71" y="52.6" class="st130" width="0.1" height="3.3"/>
				</g>
				<g class="st4">
					<rect x="71.1" y="52.6" class="st131" width="0.1" height="3.3"/>
				</g>
				<g class="st4">
					<rect x="71.3" y="52.6" class="st132" width="0.1" height="3.3"/>
				</g>
				<g class="st4">
					<rect x="71.4" y="52.6" class="st133" width="0.1" height="3.3"/>
				</g>
				<g class="st4">
					<rect x="71.6" y="52.6" class="st134" width="0.1" height="3.3"/>
				</g>
				<g class="st4">
					<rect x="71.7" y="52.6" class="st135" width="0.1" height="3.3"/>
				</g>
				<g class="st4">
					<rect x="71.9" y="52.6" class="st136" width="0.1" height="3.3"/>
				</g>
				<g class="st4">
					<rect x="72" y="52.6" class="st137" width="0.1" height="3.3"/>
				</g>
				<g class="st4">
					<rect x="72.1" y="52.6" class="st138" width="0.1" height="3.3"/>
				</g>
				<g class="st4">
					<rect x="72.3" y="52.6" class="st139" width="0.1" height="3.3"/>
				</g>
				<g class="st4">
					<rect x="72.4" y="52.6" class="st140" width="0.1" height="3.3"/>
				</g>
				<g class="st4">
					<rect x="72.6" y="52.6" class="st141" width="0.1" height="3.3"/>
				</g>
				<g class="st4">
					<rect x="72.7" y="52.6" class="st142" width="0.1" height="3.3"/>
				</g>
				<g class="st4">
					<rect x="72.9" y="52.6" class="st143" width="0.1" height="3.3"/>
				</g>
				<g class="st4">
					<rect x="73" y="52.6" class="st144" width="0.1" height="3.3"/>
				</g>
				<g class="st4">
					<rect x="73.2" y="52.6" class="st145" width="0.1" height="3.3"/>
				</g>
				<g class="st4">
					<rect x="73.3" y="52.6" class="st146" width="0.1" height="3.3"/>
				</g>
				<g class="st4">
					<rect x="73.4" y="52.6" class="st147" width="0.1" height="3.3"/>
				</g>
				<g class="st4">
					<rect x="73.6" y="52.6" class="st148" width="0.1" height="3.3"/>
				</g>
				<g class="st4">
					<rect x="73.7" y="52.6" class="st149" width="0.1" height="3.3"/>
				</g>
				<g class="st4">
					<rect x="73.9" y="52.6" class="st150" width="0.1" height="3.3"/>
				</g>
				<g class="st4">
					<rect x="74" y="52.6" class="st151" width="0.1" height="3.3"/>
				</g>
				<g class="st4">
					<rect x="74.2" y="52.6" class="st152" width="0.1" height="3.3"/>
				</g>
				<g class="st4">
					<rect x="74.3" y="52.6" class="st153" width="0.1" height="3.3"/>
				</g>
				<g class="st4">
					<rect x="74.4" y="52.6" class="st154" width="0.1" height="3.3"/>
				</g>
				<g class="st4">
					<rect x="74.6" y="52.6" class="st155" width="0.1" height="3.3"/>
				</g>
				<g class="st4">
					<rect x="74.7" y="52.6" class="st156" width="0.1" height="3.3"/>
				</g>
				<g class="st4">
					<rect x="74.9" y="52.6" class="st157" width="0.1" height="3.3"/>
				</g>
				<g class="st4">
					<rect x="75" y="52.6" class="st158" width="0.1" height="3.3"/>
				</g>
				<g class="st4">
					<rect x="75.2" y="52.6" class="st159" width="0.1" height="3.3"/>
				</g>
				<g class="st4">
					<rect x="75.3" y="52.6" class="st160" width="0.1" height="3.3"/>
				</g>
				<g class="st4">
					<rect x="75.5" y="52.6" class="st161" width="0.1" height="3.3"/>
				</g>
				<g class="st4">
					<rect x="75.6" y="52.6" class="st162" width="0.1" height="3.3"/>
				</g>
				<g class="st4">
					<rect x="75.7" y="52.6" class="st163" width="0.1" height="3.3"/>
				</g>
				<g class="st4">
					<rect x="75.9" y="52.6" class="st164" width="0.1" height="3.3"/>
				</g>
				<g class="st4">
					<rect x="76" y="52.6" class="st165" width="0.1" height="3.3"/>
				</g>
				<g class="st4">
					<rect x="76.2" y="52.6" class="st166" width="0.1" height="3.3"/>
				</g>
				<g class="st4">
					<rect x="76.3" y="52.6" class="st167" width="0.1" height="3.3"/>
				</g>
				<g class="st4">
					<rect x="76.5" y="52.6" class="st168" width="0.1" height="3.3"/>
				</g>
				<g class="st4">
					<rect x="76.6" y="52.6" class="st169" width="0.1" height="3.3"/>
				</g>
				<g class="st4">
					<rect x="76.8" y="52.6" class="st170" width="0.1" height="3.3"/>
				</g>
				<g class="st4">
					<rect x="76.9" y="52.6" class="st171" width="0.1" height="3.3"/>
				</g>
				<g class="st4">
					<rect x="77" y="52.6" class="st172" width="0.1" height="3.3"/>
				</g>
				<g class="st4">
					<rect x="77.2" y="52.6" class="st172" width="0" height="3.3"/>
				</g>
			</g>
		</g>
	</g>
</g>
<path class="st173" d="M99.5,13.3c14.2,0,28.4,3.5,40.9,10.1c0.2,0.1,0.5,0.2,0.7,0.2c0.5,0,1.1-0.3,1.3-0.8c0.4-0.7,0.1-1.6-0.6-2
	c-12.9-6.8-27.5-10.4-42.2-10.4c-0.8,0-1.5,0.7-1.5,1.5S98.6,13.3,99.5,13.3z"/>
<path class="st173" d="M29.4,45.1c-0.7-0.5-1.6-0.4-2.1,0.3C14.7,61.4,8.1,80.8,8.1,101.2c0,14.6,3.4,28.6,10,41.5
	c0.3,0.5,0.8,0.8,1.3,0.8c0.2,0,0.5-0.1,0.7-0.2c0.7-0.4,1-1.3,0.6-2c-6.4-12.5-9.7-26-9.7-40.1c0-19.8,6.4-38.5,18.6-54
	C30.2,46.5,30.1,45.6,29.4,45.1z"/>
<path class="st173" d="M57.4,23.6c0.2,0,0.5-0.1,0.7-0.2c8.5-4.5,17.6-7.5,27.1-9c0.8-0.1,1.4-0.9,1.2-1.7c-0.1-0.8-0.9-1.4-1.7-1.2
	c-9.8,1.5-19.2,4.7-28,9.3c-0.7,0.4-1,1.3-0.6,2C56.4,23.3,56.9,23.6,57.4,23.6z"/>
<path class="st173" d="M171.1,45.4c-0.5-0.7-1.5-0.8-2.1-0.3c-0.7,0.5-0.8,1.5-0.3,2.1c12.1,15.6,18.6,34.2,18.6,54
	c0,14.1-3.3,27.6-9.7,40.1c-0.4,0.7-0.1,1.6,0.6,2c0.2,0.1,0.5,0.2,0.7,0.2c0.5,0,1.1-0.3,1.3-0.8c6.6-12.9,10-26.9,10-41.5
	C190.3,80.8,183.7,61.4,171.1,45.4z"/>
<path class="st173" d="M69.1,183.9c-1.9-0.7-3.8-1.5-5.7-2.3c-6.5-2.9-12.6-6.5-18.2-10.9c-0.7-0.5-1.6-0.4-2.1,0.3
	c-0.5,0.7-0.4,1.6,0.3,2.1c5.8,4.5,12.1,8.3,18.8,11.3c1.9,0.9,3.9,1.7,5.9,2.4c0.2,0.1,0.3,0.1,0.5,0.1c0.6,0,1.2-0.4,1.4-1
	C70.3,185,69.9,184.2,69.1,183.9z"/>
<path class="st173" d="M153.3,170.7c-7.3,5.7-15.4,10.1-24,13.2c-0.8,0.3-1.2,1.1-0.9,1.9c0.2,0.6,0.8,1,1.4,1c0.2,0,0.3,0,0.5-0.1
	c9-3.2,17.3-7.8,24.9-13.7c0.7-0.5,0.8-1.5,0.3-2.1C154.9,170.3,154,170.2,153.3,170.7z"/>
<path class="st173" d="M76.2,84.7c-0.6,0-1.2,0.4-1.5,0.9H52.1c-0.3-0.5-0.8-0.9-1.5-0.9c-0.9,0-1.6,0.7-1.6,1.6
	c0,0.9,0.7,1.6,1.6,1.6c0.6,0,1.2-0.4,1.5-0.9h22.6c0.3,0.5,0.8,0.9,1.5,0.9c0.9,0,1.6-0.7,1.6-1.6C77.8,85.4,77.1,84.7,76.2,84.7z"
	/>
<path class="st173" d="M76.2,66.3c-0.6,0-1.2,0.4-1.5,0.9H52.1c-0.3-0.5-0.8-0.9-1.5-0.9c-0.9,0-1.6,0.7-1.6,1.6
	c0,0.9,0.7,1.6,1.6,1.6c0.6,0,1.2-0.4,1.5-0.9h22.6c0.3,0.5,0.8,0.9,1.5,0.9c0.9,0,1.6-0.7,1.6-1.6C77.8,67,77.1,66.3,76.2,66.3z"/>
<path class="st173" d="M76.2,103.3c-0.6,0-1.2,0.4-1.5,0.9H52.1c-0.3-0.5-0.8-0.9-1.5-0.9c-0.9,0-1.6,0.7-1.6,1.6
	c0,0.9,0.7,1.6,1.6,1.6c0.6,0,1.2-0.4,1.5-0.9h22.6c0.3,0.5,0.8,0.9,1.5,0.9c0.9,0,1.6-0.7,1.6-1.6
	C77.8,104.1,77.1,103.3,76.2,103.3z"/>
<path class="st173" d="M76.2,121.9c-0.6,0-1.2,0.4-1.5,0.9H52.1c-0.3-0.5-0.8-0.9-1.5-0.9c-0.9,0-1.6,0.7-1.6,1.6
	c0,0.9,0.7,1.6,1.6,1.6c0.6,0,1.2-0.4,1.5-0.9h22.6c0.3,0.5,0.8,0.9,1.5,0.9c0.9,0,1.6-0.7,1.6-1.6
	C77.8,122.7,77.1,121.9,76.2,121.9z"/>
<path class="st173" d="M76.2,140.5c-0.6,0-1.2,0.4-1.5,0.9H52.1c-0.3-0.5-0.8-0.9-1.5-0.9c-0.9,0-1.6,0.7-1.6,1.6s0.7,1.6,1.6,1.6
	c0.6,0,1.2-0.4,1.5-0.9h22.6c0.3,0.5,0.8,0.9,1.5,0.9c0.9,0,1.6-0.7,1.6-1.6S77.1,140.5,76.2,140.5z"/>
<path class="st173" d="M113.2,71.4H96.9c-1.3,0-2.4,1-2.4,2.2v11c0,1.2,1.1,2.2,2.4,2.2h16.2c1.3,0,2.4-1,2.4-2.2v-11
	C115.5,72.4,114.5,71.4,113.2,71.4z M114.1,84.7c0,0.5-0.4,0.9-1,0.9H96.9c-0.5,0-1-0.4-1-0.9v-11c0-0.5,0.4-0.9,1-0.9h16.2
	c0.5,0,1,0.4,1,0.9V84.7z"/>
<path class="st173" d="M149.4,79.4h-27.5c-0.4,0-0.7,0.3-0.7,0.7s0.3,0.7,0.7,0.7h27.5c0.4,0,0.7-0.3,0.7-0.7S149.8,79.4,149.4,79.4
	z"/>
<path class="st173" d="M96.9,66.8h16.2c1.3,0,2.4-1,2.4-2.2v-11c0-1.2-1.1-2.2-2.4-2.2H96.9c-1.3,0-2.4,1-2.4,2.2v11
	C94.6,65.9,95.6,66.8,96.9,66.8z M96,53.6c0-0.5,0.4-0.9,1-0.9h16.2c0.5,0,1,0.4,1,0.9v11c0,0.5-0.4,0.9-1,0.9H96.9
	c-0.5,0-1-0.4-1-0.9V53.6z"/>
<path class="st173" d="M121.9,60.8h27.5c0.4,0,0.7-0.3,0.7-0.7s-0.3-0.7-0.7-0.7h-27.5c-0.4,0-0.7,0.3-0.7,0.7
	S121.5,60.8,121.9,60.8z"/>
<path class="st173" d="M96.9,106.9h16.2c1.3,0,2.4-1,2.4-2.2v-11c0-1.2-1.1-2.2-2.4-2.2H96.9c-1.3,0-2.4,1-2.4,2.2v11
	C94.6,105.9,95.6,106.9,96.9,106.9z M95.9,93.7c0-0.5,0.4-0.9,1-0.9h16.2c0.5,0,1,0.4,1,0.9v11c0,0.5-0.4,0.9-1,0.9H96.9
	c-0.5,0-1-0.4-1-0.9V93.7z"/>
<path class="st173" d="M121.9,100.9h27.5c0.4,0,0.7-0.3,0.7-0.7s-0.3-0.7-0.7-0.7h-27.5c-0.4,0-0.7,0.3-0.7,0.7
	S121.5,100.9,121.9,100.9z"/>
<path class="st173" d="M96.9,127h16.2c1.3,0,2.4-1,2.4-2.2v-11c0-1.2-1.1-2.2-2.4-2.2H96.9c-1.3,0-2.4,1-2.4,2.2v11
	C94.6,126,95.6,127,96.9,127z M95.9,113.7c0-0.5,0.4-0.9,1-0.9h16.2c0.5,0,1,0.4,1,0.9v11c0,0.5-0.4,0.9-1,0.9H96.9
	c-0.5,0-1-0.4-1-0.9V113.7z"/>
<path class="st173" d="M121.9,120.9h27.5c0.4,0,0.7-0.3,0.7-0.7s-0.3-0.7-0.7-0.7h-27.5c-0.4,0-0.7,0.3-0.7,0.7
	S121.5,120.9,121.9,120.9z"/>
<path class="st173" d="M113.2,131.6H96.9c-1.3,0-2.4,1-2.4,2.2v11c0,1.2,1.1,2.2,2.4,2.2h16.2c1.3,0,2.4-1,2.4-2.2v-11
	C115.5,132.6,114.5,131.6,113.2,131.6z M114.1,144.8c0,0.5-0.4,0.9-1,0.9H96.9c-0.5,0-1-0.4-1-0.9v-11c0-0.5,0.4-0.9,1-0.9h16.2
	c0.5,0,1,0.4,1,0.9V144.8z"/>
<path class="st173" d="M149.4,139.5h-27.5c-0.4,0-0.7,0.3-0.7,0.7s0.3,0.7,0.7,0.7h27.5c0.4,0,0.7-0.3,0.7-0.7
	S149.8,139.5,149.4,139.5z"/>
<path class="st173" d="M86.7,45.8c-0.3,0-0.5,0.2-0.5,0.5v105.9c0,0.3,0.2,0.5,0.5,0.5s0.5-0.2,0.5-0.5V46.3
	C87.2,46,87,45.8,86.7,45.8z"/>
<path class="st173" d="M162.1,27.5H36.3c-0.8,0-1.5,0.7-1.5,1.5v132.8c0,0.8,0.7,1.5,1.5,1.5h125.9c0.8,0,1.5-0.7,1.5-1.5V29
	C163.6,28.1,163,27.5,162.1,27.5z M154,31.3h1.6c0.8,0,1.5,0.7,1.5,1.5s-0.7,1.5-1.5,1.5H154c-0.8,0-1.5-0.7-1.5-1.5
	S153.2,31.3,154,31.3z M146,31.3h1.6c0.8,0,1.5,0.7,1.5,1.5s-0.7,1.5-1.5,1.5H146c-0.8,0-1.5-0.7-1.5-1.5S145.1,31.3,146,31.3z
	 M160.6,160.3H37.8V38.5h122.9V160.3z"/>
</svg>
