<?xml version="1.0" encoding="utf-8"?>
<!-- Generator: Adobe Illustrator 21.0.0, SVG Export Plug-In . SVG Version: 6.00 Build 0)  -->
<svg version="1.1" id="레이어_1" xmlns="http://www.w3.org/2000/svg" xmlns:xlink="http://www.w3.org/1999/xlink" x="0px"
	 y="0px" viewBox="0 0 198.4 198.4" style="enable-background:new 0 0 198.4 198.4;" xml:space="preserve">
<style type="text/css">
	.st0{fill:#4848FF;}
	.st1{fill:#4848FF;}
</style>
<path class="st0" d="M57.3,23.6c0.2,0,0.5-0.1,0.7-0.2c12.5-6.6,26.6-10.1,40.9-10.1c0.8,0,1.5-0.7,1.5-1.5s-0.7-1.5-1.5-1.5
	c-14.7,0-29.3,3.6-42.2,10.4c-0.7,0.4-1,1.3-0.6,2C56.3,23.3,56.8,23.6,57.3,23.6z"/>
<path class="st0" d="M11,101.2c0-19.8,6.4-38.5,18.6-54c0.5-0.7,0.4-1.6-0.3-2.1c-0.7-0.5-1.6-0.4-2.1,0.3C14.6,61.4,8,80.8,8,101.2
	c0,14.6,3.4,28.6,10,41.5c0.3,0.5,0.8,0.8,1.3,0.8c0.2,0,0.5-0.1,0.7-0.2c0.7-0.4,1-1.3,0.6-2C14.3,128.9,11,115.4,11,101.2z"/>
<path class="st0" d="M113.1,14.4c9.5,1.5,18.6,4.5,27.1,9c0.2,0.1,0.5,0.2,0.7,0.2c0.5,0,1.1-0.3,1.3-0.8c0.4-0.7,0.1-1.6-0.6-2
	c-8.8-4.6-18.2-7.7-28-9.3c-0.8-0.1-1.6,0.4-1.7,1.2S112.3,14.3,113.1,14.4z"/>
<path class="st0" d="M171.1,45.4c-0.5-0.7-1.5-0.8-2.1-0.3c-0.7,0.5-0.8,1.5-0.3,2.1c12.1,15.6,18.6,34.2,18.6,54
	c0,14.1-3.3,27.6-9.7,40.1c-0.4,0.7-0.1,1.6,0.6,2c0.2,0.1,0.5,0.2,0.7,0.2c0.5,0,1.1-0.3,1.3-0.8c6.6-12.9,10-26.9,10-41.5
	C190.2,80.8,183.6,61.4,171.1,45.4z"/>
<path class="st0" d="M69,183.9c-1.9-0.7-3.8-1.5-5.7-2.3c-6.5-2.9-12.6-6.5-18.2-10.9c-0.7-0.5-1.6-0.4-2.1,0.3
	c-0.5,0.7-0.4,1.6,0.3,2.1c5.8,4.5,12.1,8.3,18.8,11.3c1.9,0.9,3.9,1.7,5.9,2.4c0.2,0.1,0.3,0.1,0.5,0.1c0.6,0,1.2-0.4,1.4-1
	C70.2,185,69.8,184.2,69,183.9z"/>
<path class="st0" d="M153.2,170.7c-7.3,5.7-15.4,10.1-24,13.2c-0.8,0.3-1.2,1.1-0.9,1.9c0.2,0.6,0.8,1,1.4,1c0.2,0,0.3,0,0.5-0.1
	c9-3.2,17.3-7.8,24.9-13.7c0.7-0.5,0.8-1.5,0.3-2.1S153.9,170.2,153.2,170.7z"/>
<path class="st1" d="M127.6,50.3c-0.5-0.6-1.3-0.7-2-0.2l-12.6,8.7c-0.7,0.5-0.9,1.4-0.4,2.1c0.3,0.4,0.8,0.6,1.2,0.6
	c0.3,0,0.6-0.1,0.9-0.3l11.5-7.9l4.2,4.7c0.5,0.6,1.4,0.7,2,0.2l13.3-9.5l3.1,3.7c0.4,0.4,0.9,0.6,1.5,0.5c0.5-0.1,1-0.5,1.1-1.1
	l3.1-11.2c0.1-0.5,0-1-0.3-1.4c-0.3-0.4-0.8-0.6-1.3-0.5l-11.4,1.3c-0.5,0.1-1,0.4-1.2,0.9c-0.2,0.5-0.1,1.1,0.2,1.5l3.3,3.9
	l-12.1,8.6L127.6,50.3z M151.1,41.9l-1.7,6.3l-4.7-5.6L151.1,41.9z"/>
<path class="st0" d="M48,88.3h32.4c0.8,0,1.5-0.7,1.5-1.5s-0.7-1.5-1.5-1.5H48c-5.8,0-10.5-4.7-10.5-10.5V41.4
	c0-5.8,4.7-10.5,10.5-10.5h33.4c5.8,0,10.5,4.7,10.5,10.5v25.4c0,0.8,0.7,1.5,1.5,1.5s1.5-0.7,1.5-1.5V41.4
	c0-7.4-6.1-13.5-13.5-13.5H48c-7.4,0-13.5,6.1-13.5,13.5v33.4C34.5,82.3,40.6,88.3,48,88.3z"/>
<path class="st0" d="M104.8,68.3c0.8,0,1.5-0.7,1.5-1.5V41.4c0-5.8,4.7-10.5,10.5-10.5h33.4c5.8,0,10.5,4.7,10.5,10.5v33.4
	c0,5.8-4.7,10.5-10.5,10.5h-32.4c-0.8,0-1.5,0.7-1.5,1.5s0.7,1.5,1.5,1.5h32.4c7.4,0,13.5-6.1,13.5-13.5V41.4
	c0-7.4-6.1-13.5-13.5-13.5h-33.4c-7.4,0-13.5,6.1-13.5,13.5v25.4C103.3,67.7,104,68.3,104.8,68.3z"/>
<path class="st0" d="M121,63v15c0,0.8,0.7,1.5,1.5,1.5s1.5-0.7,1.5-1.5V63c0-0.8-0.7-1.5-1.5-1.5S121,62.2,121,63z"/>
<path class="st0" d="M130,64.3V78c0,0.8,0.7,1.5,1.5,1.5s1.5-0.7,1.5-1.5V64.3c0-0.8-0.7-1.5-1.5-1.5S130,63.5,130,64.3z"/>
<path class="st0" d="M139.1,67.4V78c0,0.8,0.7,1.5,1.5,1.5s1.5-0.7,1.5-1.5V67.4c0-0.8-0.7-1.5-1.5-1.5S139.1,66.6,139.1,67.4z"/>
<path class="st0" d="M148.1,57v21c0,0.8,0.7,1.5,1.5,1.5s1.5-0.7,1.5-1.5V57c0-0.8-0.7-1.5-1.5-1.5S148.1,56.2,148.1,57z"/>
<path class="st0" d="M55.6,64.3c-7.2,1.3-11.4,3.9-11.4,7.3c0,5.2,10,8,19.9,8h0.7c9.9,0,19.9-2.7,19.9-8c0-3.3-4.2-6-11.4-7.3
	c-0.8-0.1-1.6,0.4-1.7,1.2c-0.1,0.8,0.4,1.6,1.2,1.7c6.5,1.1,8.9,3.3,8.9,4.3c0,2-6.6,5-16.9,5h-0.7c-10.3,0-16.9-2.9-16.9-5
	c0-1.1,2.4-3.2,8.9-4.3c0.8-0.1,1.4-0.9,1.2-1.7C57.2,64.7,56.4,64.2,55.6,64.3z"/>
<path class="st0" d="M24.7,149.6c0,0.8,0.7,1.5,1.5,1.5h10.7v11.5c0,0.8,0.7,1.5,1.5,1.5s1.5-0.7,1.5-1.5v-14.5H26.2
	C25.4,148.1,24.7,148.8,24.7,149.6z"/>
<path class="st0" d="M148.9,130.9c3.8-2.1,6.3-6.1,6.3-10.7c0-6.8-5.5-12.3-12.3-12.3s-12.3,5.5-12.3,12.3c0,4.4,2.3,8.3,5.8,10.5
	c-3.1,1.1-5.8,3.1-7.1,6.2l-6.2-14.6h-6.7v-12.7c0-6.5-4.3-12.1-10.4-14.4c3.5-2.2,5.9-6.1,5.9-10.5c0-1.4-0.3-2.8-0.7-4.1
	c0-0.1-0.1-0.2-0.1-0.3c-1.8-4.6-6.3-8-11.5-8c-5.4,0-10,3.5-11.7,8.4c0,0,0,0,0,0c0,0,0,0.1,0,0.1c-0.4,1.2-0.6,2.5-0.6,3.8
	c0,4.4,2.4,8.3,5.9,10.5c-6.1,2.3-10.4,7.9-10.4,14.4v12.7H76l-6.1,14.6c-1.4-3.1-4.1-5.1-7.2-6.2c3.5-2.2,5.8-6,5.8-10.5
	c0-6.8-5.5-12.3-12.3-12.3S44,113.4,44,120.2c0,4.6,2.5,8.6,6.3,10.7c-4.7,2.5-8,7.9-8,14.2v17.5c0,0.8,0.7,1.5,1.5,1.5
	s1.5-0.7,1.5-1.5v-17.5c0-7,4.8-12.6,10.7-12.6c5.7,0,11.8,2.4,12,9.1l-8.5,20.5c-0.3,0.8,0,1.6,0.8,2c0.2,0.1,0.4,0.1,0.6,0.1
	c0.6,0,1.1-0.3,1.4-0.9l8.6-20.7c0,0,0,0,0-0.1l7.2-17.2h43l7.1,17c0,0.2,0.1,0.4,0.2,0.6l8.6,20.5c0.3,0.8,1.2,1.1,2,0.8
	c0.8-0.3,1.1-1.2,0.8-2l-8.7-20.5c0.2-6.7,6.3-9,12-9c5.9,0,10.7,5.7,10.7,12.6v17.5c0,0.8,0.7,1.5,1.5,1.5s1.5-0.7,1.5-1.5v-17.5
	C156.9,138.8,153.6,133.4,148.9,130.9z M65.6,120.2c0,5.1-4.2,9.3-9.3,9.3c-2.6,0-4.9-1-6.6-2.7c0.8-2.4,4-10.8,11.7-14.4
	c0,0,0,0,0,0C64,114.1,65.6,116.9,65.6,120.2z M56.3,110.8c0.5,0,1,0.1,1.5,0.1c-5.6,3.6-8.7,9.2-10.1,12.7
	c-0.4-1.1-0.7-2.3-0.7-3.5C47,115,51.2,110.8,56.3,110.8z M102.4,106.1l-2.9,6.4l-2.9-6.4l2.9-8.4L102.4,106.1z M99.5,75.2
	c3.5,0,6.6,2,8.2,4.9c-6.5,2.8-13.5,1.1-16.5,0.2C92.7,77.3,95.8,75.2,99.5,75.2z M90.1,84.6c0-0.5,0-0.9,0.1-1.4
	c1.9,0.6,5.4,1.5,9.4,1.5c2.8,0,6-0.4,9-1.7c0.1,0.5,0.1,1.1,0.1,1.6c0,4.7-3.5,8.6-8.1,9.2c-0.3-0.1-0.6-0.1-0.9,0c0,0-0.1,0-0.1,0
	c-0.1,0-0.1,0-0.2,0c0,0,0,0,0,0c0,0-0.1,0-0.1-0.1c-0.3-0.1-0.6-0.1-0.9,0C93.7,93.3,90.1,89.3,90.1,84.6z M85.6,109.5
	c0-6.1,4.7-11.1,11-12.3l-3,8.6c-0.1,0.4-0.1,0.8,0.1,1.1l4.4,9.8c0.2,0.5,0.8,0.9,1.4,0.9h0.2c0.6,0,1.1-0.3,1.4-0.9l4.4-9.8
	c0.2-0.3,0.2-0.7,0.1-1.1l-2.9-8.5c6.2,1.3,10.8,6.3,10.8,12.3v12.7H85.6V109.5z M152.2,120.2c0,1.4-0.3,2.7-0.9,3.9
	c-1.4-3.4-4.4-9.3-10.2-13c0.6-0.1,1.2-0.2,1.7-0.2C148,110.8,152.2,115,152.2,120.2z M133.5,120.2c0-3.2,1.6-6,4.1-7.7
	c7.7,3.7,10.9,12.4,11.6,14.5c-1.7,1.5-3.9,2.5-6.3,2.5C137.7,129.5,133.5,125.3,133.5,120.2z"/>
<path class="st0" d="M172.9,148.1h-13.7v14.5c0,0.8,0.7,1.5,1.5,1.5s1.5-0.7,1.5-1.5v-11.5h10.7c0.8,0,1.5-0.7,1.5-1.5
	S173.8,148.1,172.9,148.1z"/>
<path class="st0" d="M90.8,135.3H80.6c-0.6,0-1.2,0.4-1.4,1l-5,12.7c-0.2,0.5-0.1,1,0.2,1.4s0.7,0.7,1.2,0.7h11.2
	c0.7,0,1.2-0.4,1.4-1l4-12.7c0.1-0.5,0.1-1-0.2-1.3C91.7,135.5,91.3,135.3,90.8,135.3z M85.7,148h-7.9l3.8-9.7h7.1L85.7,148z"/>
<path class="st0" d="M121.6,142.6c-0.2-0.6-0.8-0.9-1.4-0.9H110c-0.5,0-0.9,0.2-1.2,0.6c-0.3,0.4-0.4,0.9-0.2,1.3l4,12.7
	c0.2,0.6,0.8,1,1.4,1h11.2c0.5,0,1-0.2,1.2-0.7s0.3-0.9,0.2-1.4L121.6,142.6z M115.1,154.3l-3.1-9.7h7.1l3.8,9.7H115.1z"/>
<path class="st0" d="M112,138.3h2.9c0.5,0,1-0.2,1.2-0.7s0.3-0.9,0.2-1.4L115,133c-0.2-0.6-0.8-0.9-1.4-0.9H111
	c-0.5,0-0.9,0.2-1.2,0.6c-0.3,0.4-0.4,0.9-0.2,1.3l1,3.3C110.8,137.9,111.4,138.3,112,138.3z"/>
<path class="st0" d="M64.4,41c-6.3,0-8.2,5.6-8.3,8.6c0,0.2,0,0.5,0.1,0.7L63,65.4c0.2,0.5,0.8,0.9,1.4,0.9s1.1-0.3,1.4-0.9
	l6.8-15.1c0.1-0.2,0.1-0.4,0.1-0.7C72.6,46.6,70.7,41,64.4,41z M64.4,51.3c-1.1,0-2-0.9-2-2s0.9-2,2-2s2,0.9,2,2
	S65.5,51.3,64.4,51.3z"/>
</svg>
