<?xml version="1.0" encoding="utf-8"?>
<!-- Generator: Adobe Illustrator 21.0.0, SVG Export Plug-In . SVG Version: 6.00 Build 0)  -->
<svg version="1.1" id="레이어_1" xmlns="http://www.w3.org/2000/svg" xmlns:xlink="http://www.w3.org/1999/xlink" x="0px"
	 y="0px" viewBox="0 0 198.4 198.4" style="enable-background:new 0 0 198.4 198.4;" xml:space="preserve">
<style type="text/css">
	.st0{fill:#06064B;}
	.st1{fill:#6DC4F5;}
</style>
<path class="st0" d="M51.3,60.4c0-0.3-0.1-0.5-0.3-0.7c-0.3-0.3-0.8-0.3-1.2-0.1l-5.2,3.1c-0.4,0.3-0.5,0.6-0.5,0.8V64
	c0,0.4,0.2,0.7,0.5,0.8l5.2,3c0.2,0.1,0.4,0.2,0.6,0.2c0.2,0,0.4-0.1,0.6-0.3c0.2-0.2,0.3-0.4,0.3-0.7c0-0.3-0.1-0.6-0.4-0.8
	l-4.5-2.6l4.5-2.6C51.2,61,51.3,60.7,51.3,60.4z"/>
<path class="st0" d="M59.8,58.4c-0.3,0-0.5,0.2-0.6,0.3l-5.3,9c-0.1,0.2-0.2,0.4-0.2,0.6c0,0.3,0.1,0.5,0.3,0.6
	c0.2,0.2,0.4,0.2,0.6,0.2c0.3,0,0.5-0.2,0.6-0.3l5.3-9c0.1-0.2,0.2-0.4,0.2-0.7s-0.1-0.5-0.3-0.6C60.3,58.4,60.1,58.4,59.8,58.4z"/>
<path class="st0" d="M64.9,64.1l1.1-0.9c0.1-0.1,0.2-0.1,0.3-0.1h2.8c0.2,0,0.5-0.1,0.6-0.3c0.2-0.2,0.3-0.4,0.3-0.6
	c0-0.2-0.1-0.5-0.3-0.6c-0.2-0.2-0.4-0.3-0.6-0.3h-2.9c-0.5,0-0.9,0.2-1.4,0.5l-1.1,1c-0.5,0.5-0.8,1-0.8,1.6v1.7
	c0,0.7,0.2,1.2,0.7,1.6l1.3,1.1c0.4,0.3,0.9,0.5,1.4,0.5h2.8c0.3,0,0.5-0.1,0.6-0.3c0.2-0.2,0.3-0.4,0.3-0.6c0-0.3-0.1-0.5-0.3-0.6
	c-0.2-0.2-0.4-0.3-0.6-0.3h-2.7c-0.2,0-0.3,0-0.4-0.1l-1.2-1c-0.1-0.1-0.1-0.1-0.1-0.3v-1.6C64.7,64.3,64.8,64.2,64.9,64.1z"/>
<path class="st0" d="M75,69.2h1.5c0.6,0,1.3-0.3,1.9-0.8s0.9-1.2,0.9-1.8v-2.8c0-0.7-0.3-1.3-0.9-1.8s-1.2-0.8-1.9-0.8H75
	c-0.7,0-1.3,0.3-1.9,0.8c-0.6,0.6-0.9,1.2-0.9,1.8v2.8c0,0.6,0.3,1.2,0.9,1.8S74.3,69.2,75,69.2z M74,66.5v-2.7c0-0.1,0-0.3,0.2-0.3
	l0.4-0.4c0.1-0.1,0.3-0.1,0.5-0.1h1.4c0.1,0,0.3,0,0.4,0.1l0.5,0.4c0,0,0.1,0.1,0.1,0.4v2.7c0,0.1,0,0.2-0.2,0.3L77,67.2
	c-0.1,0.1-0.3,0.2-0.4,0.2H75c-0.1,0-0.2,0-0.3-0.1l-0.5-0.4C74.1,66.8,74,66.7,74,66.5z"/>
<path class="st0" d="M88.1,61.7c-0.4-0.3-0.9-0.5-1.4-0.5h-3c-0.5,0-1,0.2-1.4,0.6c-0.4,0.4-0.6,0.9-0.6,1.4c0,0.3,0.1,0.7,0.3,1
	c0.2,0.3,0.5,0.6,0.9,0.8l3.5,1.6c0.2,0.1,0.3,0.2,0.3,0.4c0,0.1,0,0.2-0.1,0.3c-0.1,0.1-0.2,0.1-0.3,0.1h-2.4
	c-0.3,0-0.5-0.1-0.6-0.2c-0.5-0.5-1.1-0.4-1.4-0.1c-0.2,0.2-0.3,0.4-0.3,0.6c0,0.4,0.2,0.7,0.7,1c0.4,0.3,0.9,0.5,1.4,0.5h2.7
	c0.6,0,1.1-0.2,1.5-0.7c0.4-0.4,0.7-1,0.7-1.6c0-0.5-0.1-0.9-0.4-1.3s-0.6-0.7-1-0.8l-3.5-1.6c-0.1-0.1-0.1-0.1-0.1-0.2
	c0-0.1,0-0.1,0.2-0.1h3c0.1,0,0.2,0.1,0.4,0.2c0.4,0.4,1,0.5,1.4,0.1c0.2-0.2,0.3-0.4,0.3-0.6C88.7,62.3,88.5,62,88.1,61.7z"/>
<path class="st0" d="M91.8,63h0.4v4c0,0.6,0.2,1.1,0.7,1.6c0.4,0.4,1,0.7,1.6,0.7h1.3c0.6,0,1.2-0.2,1.6-0.7
	c0.4-0.4,0.6-0.9,0.6-1.4c0-0.3-0.1-0.5-0.3-0.7c-0.2-0.2-0.4-0.3-0.7-0.3c-0.3,0-0.7,0.1-0.9,0.7c-0.1,0.3-0.3,0.4-0.5,0.4h-1.3
	c-0.1,0-0.2,0-0.3-0.1c0.1,0,0-0.1,0-0.2v-4h2.4c0.2,0,0.5-0.1,0.6-0.3c0.2-0.2,0.3-0.4,0.3-0.6c0-0.2-0.1-0.5-0.3-0.6
	c-0.2-0.2-0.4-0.3-0.6-0.3H94v-1.4c0-0.2-0.1-0.5-0.3-0.6c-0.4-0.4-0.9-0.3-1.3,0c-0.2,0.2-0.3,0.4-0.3,0.6v1.4h-0.4
	c-0.3,0-0.5,0.1-0.6,0.3c-0.2,0.2-0.3,0.4-0.3,0.6c0,0.3,0.1,0.5,0.3,0.6C91.3,62.9,91.5,63,91.8,63z"/>
<path class="st0" d="M107,62.7l-5.2-3.1c-0.5-0.3-0.9-0.2-1.2,0.1c-0.2,0.2-0.3,0.4-0.3,0.7s0.1,0.6,0.4,0.8l4.5,2.6l-4.5,2.6
	c-0.3,0.2-0.4,0.4-0.4,0.8c0,0.3,0.1,0.5,0.3,0.7c0.2,0.2,0.4,0.3,0.6,0.3s0.4-0.1,0.6-0.2l5.2-3c0.3-0.2,0.5-0.5,0.5-0.8v-0.5
	C107.6,63.2,107.4,62.9,107,62.7z"/>
<path class="st0" d="M51.3,75.2c0-0.3-0.1-0.5-0.3-0.7c-0.3-0.3-0.8-0.3-1.2-0.1l-5.2,3.1c-0.4,0.3-0.5,0.6-0.5,0.8v0.5
	c0,0.4,0.2,0.7,0.5,0.8l5.2,3c0.2,0.1,0.4,0.2,0.6,0.2c0.2,0,0.4-0.1,0.6-0.3c0.2-0.2,0.3-0.4,0.3-0.7c0-0.3-0.1-0.6-0.4-0.8
	l-4.5-2.6l4.5-2.6C51.2,75.8,51.3,75.5,51.3,75.2z"/>
<path class="st0" d="M59.8,73.2c-0.3,0-0.5,0.2-0.6,0.3l-5.3,9c-0.1,0.2-0.2,0.4-0.2,0.6c0,0.3,0.1,0.5,0.3,0.6
	c0.2,0.2,0.4,0.2,0.6,0.2c0.3,0,0.5-0.2,0.6-0.3l5.3-9c0.1-0.2,0.2-0.4,0.2-0.7c0-0.3-0.1-0.5-0.3-0.6
	C60.3,73.2,60.1,73.2,59.8,73.2z"/>
<path class="st0" d="M68.4,76.3c-0.2,0.2-0.3,0.4-0.3,0.6v0.9l-1.7,4l-1.7-3.9v-1c0-0.2-0.1-0.5-0.3-0.6c-0.4-0.4-0.9-0.4-1.3,0
	c-0.2,0.2-0.3,0.4-0.3,0.6v1.3l2.3,5.2c0.2,0.5,0.6,0.6,0.9,0.6h0.8c0.2,0,0.6-0.1,0.8-0.6l2.3-5.2v-1.4c0-0.2-0.1-0.5-0.3-0.6
	C69.4,75.9,68.8,75.9,68.4,76.3z"/>
<path class="st0" d="M78.5,76.7c-0.4-0.4-1-0.6-1.6-0.6h-2.5c-0.3,0-0.5,0.1-0.6,0.3c-0.2,0.2-0.3,0.4-0.3,0.6s0.1,0.5,0.3,0.6
	c0.2,0.2,0.4,0.3,0.6,0.3h2.5c0.1,0,0.2,0,0.3,0.1c0.1,0.1,0.1,0.2,0.1,0.3v0.6c-0.1,0-0.3,0-0.4,0h-2.6c-0.6,0-1.1,0.2-1.6,0.7
	c-0.4,0.4-0.7,1-0.7,1.6V82c0,0.6,0.2,1.2,0.7,1.6c0.4,0.4,1,0.7,1.6,0.7h2.3l0.9-0.5c0,0.1,0.1,0.2,0.2,0.3C78,84,78.2,84,78.4,84
	c0.2,0,0.5-0.1,0.6-0.3c0.2-0.2,0.3-0.4,0.3-0.7l-0.2-4.9C79.2,77.6,78.9,77.1,78.5,76.7z M74,81.1c0-0.1,0-0.2,0.1-0.3
	c0.1-0.1,0.2-0.1,0.3-0.1H77c0.1,0,0.2,0,0.3,0.1c0.1,0.1,0.1,0.2,0.1,0.3v0.4l-1.2,0.7h-1.8c-0.1,0-0.2,0-0.3-0.1
	c0-0.1-0.1-0.2-0.1-0.3V81.1z"/>
<path class="st0" d="M85.8,73.4c-0.2-0.2-0.4-0.3-0.6-0.3h-2c-0.3,0-0.5,0.1-0.6,0.3c-0.2,0.2-0.3,0.4-0.3,0.6s0.1,0.5,0.3,0.6
	c0.2,0.2,0.4,0.3,0.6,0.3h1.1v7.2h-1.1c-0.3,0-0.5,0.1-0.6,0.3c-0.2,0.2-0.3,0.4-0.3,0.6s0.1,0.5,0.3,0.6c0.2,0.2,0.4,0.3,0.6,0.3h4
	c0.3,0,0.5-0.1,0.6-0.3c0.2-0.2,0.3-0.4,0.3-0.6s-0.1-0.5-0.3-0.6c-0.2-0.2-0.4-0.3-0.6-0.3H86V74C86,73.8,85.9,73.6,85.8,73.4z"/>
<path class="st0" d="M96.5,83.8c0.2,0.2,0.4,0.3,0.6,0.3s0.5-0.1,0.6-0.3c0.2-0.2,0.3-0.4,0.3-0.6V77c0-0.2-0.1-0.5-0.3-0.6
	c-0.4-0.4-0.9-0.4-1.3,0c-0.2,0.2-0.3,0.4-0.3,0.6v4l-2,1.3h-0.7c-0.4,0-0.5-0.2-0.6-0.5l-0.2-4.9c0-0.2-0.1-0.5-0.3-0.6
	c-0.4-0.4-0.9-0.4-1.3,0c-0.2,0.2-0.3,0.4-0.3,0.6l0.2,4.9c0,0.6,0.3,1.1,0.7,1.5c0.4,0.4,1,0.6,1.6,0.6H94c0.5,0,1-0.2,1.5-0.5
	l0.8-0.5V83C96.2,83.4,96.3,83.6,96.5,83.8z"/>
<path class="st0" d="M106.3,76.7c-0.5-0.4-1-0.6-1.5-0.6H103c-0.5,0-1,0.2-1.3,0.5l-0.5,0.4c-0.2,0.2-0.4,0.4-0.6,0.8
	c-0.1,0.3-0.2,0.6-0.2,0.8v3c0,0.3,0.1,0.5,0.2,0.8s0.3,0.5,0.5,0.7l0.6,0.5c0.1,0.1,0.3,0.2,0.6,0.3c0.3,0.1,0.6,0.2,0.8,0.2h3.5
	c0.2,0,0.5-0.1,0.6-0.3c0.2-0.2,0.3-0.4,0.3-0.6c0-0.3-0.1-0.5-0.3-0.6c-0.2-0.2-0.4-0.3-0.6-0.3h-3.4c-0.1,0-0.3-0.1-0.4-0.2
	l-0.4-0.3c-0.1-0.1-0.2-0.2-0.2-0.4v-0.1h4.4c0.2,0,0.5-0.1,0.6-0.3s0.3-0.4,0.3-0.6v-1.6c0-0.7-0.2-1.2-0.6-1.6L106.3,76.7z
	 M105.6,78.7v0.7h-3.5v-0.8c0-0.1,0-0.2,0.2-0.3l0.4-0.3c0.1-0.1,0.3-0.2,0.4-0.2h1.6c0.1,0,0.2,0,0.4,0.2l0.4,0.3
	C105.5,78.4,105.6,78.5,105.6,78.7z"/>
<path class="st0" d="M116.4,77.5l-5.2-3.1c-0.5-0.3-0.9-0.2-1.2,0.1c-0.2,0.2-0.3,0.4-0.3,0.7c0,0.3,0.1,0.6,0.4,0.8l4.5,2.6
	l-4.5,2.6c-0.3,0.2-0.4,0.4-0.4,0.8c0,0.3,0.1,0.5,0.3,0.7c0.2,0.2,0.4,0.3,0.6,0.3s0.4-0.1,0.6-0.2l5.2-3c0.3-0.2,0.5-0.5,0.5-0.8
	v-0.5C116.9,78,116.7,77.7,116.4,77.5z"/>
<path class="st0" d="M51.3,90c0-0.3-0.1-0.5-0.3-0.7c-0.3-0.3-0.8-0.3-1.2-0.1l-5.2,3.1c-0.4,0.3-0.5,0.6-0.5,0.8v0.5
	c0,0.4,0.2,0.7,0.5,0.8l5.2,3c0.2,0.1,0.4,0.2,0.6,0.2c0.2,0,0.4-0.1,0.6-0.3c0.2-0.2,0.3-0.4,0.3-0.7c0-0.3-0.1-0.6-0.4-0.8
	l-4.5-2.6l4.5-2.6C51.2,90.6,51.3,90.3,51.3,90z"/>
<path class="st0" d="M59.8,88c-0.3,0-0.5,0.2-0.6,0.3l-5.3,9c-0.1,0.2-0.2,0.4-0.2,0.6c0,0.3,0.1,0.5,0.3,0.6
	c0.2,0.2,0.4,0.2,0.6,0.2c0.3,0,0.5-0.2,0.6-0.3l5.3-9c0.1-0.2,0.2-0.4,0.2-0.7c0-0.3-0.1-0.5-0.3-0.6C60.3,88,60.1,88,59.8,88z"/>
<path class="st1" d="M68.4,91.1c-0.1,0.1-0.2,0.2-0.2,0.4l-0.1-0.1c-0.5-0.4-1-0.6-1.6-0.6h-0.9c-0.6,0-1.1,0.2-1.5,0.6l-0.5,0.5
	c-0.2,0.2-0.4,0.4-0.5,0.7c-0.1,0.3-0.2,0.6-0.2,1v2.2c0,0.3,0.1,0.6,0.2,0.9c0.1,0.3,0.3,0.5,0.5,0.7l0.5,0.4
	c0.5,0.4,1,0.6,1.6,0.6h1c0.5,0,1-0.2,1.5-0.6v1.4c0,0.1,0,0.2-0.1,0.3l-0.4,0.4c-0.1,0.1-0.2,0.1-0.3,0.1h-2.8
	c-0.2,0-0.5,0.1-0.6,0.3c-0.2,0.2-0.3,0.4-0.3,0.6c0,0.3,0.1,0.5,0.3,0.6c0.2,0.2,0.4,0.3,0.6,0.3h2.8c0.2,0,0.5,0,0.8-0.1
	s0.5-0.2,0.7-0.4l0.5-0.5c0.5-0.4,0.8-1,0.8-1.6v-7.4c0-0.3-0.1-0.5-0.3-0.6C69.3,90.7,68.8,90.7,68.4,91.1z M68.2,95.1
	c0,0.1,0,0.2-0.2,0.3l-1,0.9c-0.1,0.1-0.3,0.2-0.4,0.2h-1.1c-0.1,0-0.2,0-0.3-0.1L64.8,96c-0.1-0.1-0.2-0.2-0.2-0.3v-2.2
	c0-0.1,0-0.3,0.1-0.3l0.4-0.3c0.1-0.1,0.3-0.2,0.4-0.2h0.9c0.2,0,0.3,0,0.4,0.2l1.1,0.9c0.1,0.1,0.2,0.2,0.2,0.4L68.2,95.1
	L68.2,95.1z"/>
<path class="st1" d="M78.2,91.5c-0.5-0.4-1-0.6-1.5-0.6h-1.8c-0.5,0-1,0.2-1.3,0.5L73,91.7c-0.2,0.2-0.4,0.4-0.6,0.8
	c-0.1,0.3-0.2,0.6-0.2,0.8v3c0,0.3,0.1,0.5,0.2,0.8s0.3,0.5,0.5,0.7l0.6,0.5c0.1,0.1,0.3,0.2,0.6,0.3c0.3,0.1,0.6,0.2,0.8,0.2h3.5
	c0.2,0,0.5-0.1,0.6-0.3c0.2-0.2,0.3-0.4,0.3-0.6c0-0.3-0.1-0.5-0.3-0.6c-0.2-0.2-0.4-0.3-0.6-0.3H75c-0.1,0-0.3-0.1-0.4-0.2
	l-0.4-0.3c-0.1-0.1-0.2-0.2-0.2-0.4V96h4.4c0.2,0,0.5-0.1,0.6-0.3c0.2-0.2,0.3-0.4,0.3-0.6v-1.6c0-0.7-0.2-1.2-0.6-1.6L78.2,91.5z
	 M77.5,93.5v0.7H74v-0.8c0-0.1,0-0.2,0.2-0.3l0.4-0.3c0.1-0.1,0.3-0.2,0.4-0.2h1.6c0.1,0,0.2,0,0.4,0.2l0.4,0.3
	C77.5,93.2,77.5,93.4,77.5,93.5z"/>
<path class="st1" d="M85.9,90.8L85.9,90.8h-1.6c-0.7,0-1.3,0.3-1.9,0.8c-0.6,0.6-0.9,1.2-0.9,1.8v2.8c0,0.6,0.3,1.2,0.9,1.8
	c0.6,0.5,1.2,0.8,1.9,0.8h1.5c0.6,0,1.3-0.3,1.9-0.8s0.9-1.2,0.9-1.8v-2.8c0-0.7-0.3-1.3-0.9-1.8C87.2,91.1,86.5,90.8,85.9,90.8z
	 M86.9,93.5v2.7c0,0.1,0,0.2-0.2,0.3l-0.4,0.4C86.2,97,86,97,85.9,97h-1.5c-0.1,0-0.2,0-0.3-0.1l-0.5-0.4c-0.1-0.1-0.2-0.2-0.2-0.4
	v-2.7c0-0.1,0-0.3,0.2-0.3l0.4-0.4c0.1-0.1,0.3-0.1,0.5-0.1h1.4c0.1,0,0.3,0,0.4,0.1l0.5,0.4C86.7,93.1,86.9,93.2,86.9,93.5z"/>
<path class="st1" d="M97.4,91.3c-0.7-0.7-1.8-0.7-2.6,0.1c-0.4-0.4-0.8-0.6-1.3-0.6c-0.4,0-0.8,0.1-1.1,0.4
	c-0.2-0.2-0.4-0.4-0.7-0.4c-0.3,0-0.5,0.1-0.6,0.3c-0.2,0.2-0.3,0.4-0.3,0.6v6.2c0,0.2,0.1,0.5,0.3,0.6c0.4,0.4,0.9,0.4,1.3,0
	c0.2-0.2,0.3-0.4,0.3-0.6v-4.6l0.9-0.7h0.1c0,0,0,0,0,0.1v5.2c0,0.3,0.1,0.5,0.3,0.6c0.4,0.4,0.9,0.3,1.3,0c0.2-0.2,0.3-0.4,0.3-0.6
	v-4.7l0.7-0.6l0.1-0.1c0,0,0,0,0,0.2l0.2,5.1c0,0.2,0.1,0.5,0.3,0.6c0.2,0.2,0.4,0.3,0.6,0.3s0.5-0.1,0.6-0.3
	c0.2-0.2,0.3-0.4,0.3-0.6L98,92.6C97.9,92.1,97.7,91.6,97.4,91.3z"/>
<path class="st1" d="M106.3,91.5L106.3,91.5c-0.5-0.4-1-0.6-1.5-0.6H103c-0.5,0-1,0.2-1.3,0.5l-0.5,0.4c-0.2,0.2-0.4,0.4-0.6,0.8
	c-0.1,0.3-0.2,0.6-0.2,0.8v3c0,0.3,0.1,0.5,0.2,0.8s0.3,0.5,0.5,0.7l0.6,0.5c0.1,0.1,0.3,0.2,0.6,0.3c0.3,0.1,0.6,0.2,0.8,0.2h3.5
	c0.2,0,0.5-0.1,0.6-0.3c0.2-0.2,0.3-0.4,0.3-0.6c0-0.3-0.1-0.5-0.3-0.6c-0.2-0.2-0.4-0.3-0.6-0.3h-3.4c-0.1,0-0.3-0.1-0.4-0.2
	l-0.4-0.3c-0.1-0.1-0.2-0.2-0.2-0.4V96h4.4c0.2,0,0.5-0.1,0.6-0.3s0.3-0.4,0.3-0.6v-1.6c0-0.7-0.2-1.2-0.6-1.6L106.3,91.5z
	 M105.6,93.5v0.7h-3.5v-0.8c0-0.1,0-0.2,0.2-0.3l0.4-0.3c0.1-0.1,0.3-0.2,0.4-0.2h1.6c0.1,0,0.2,0,0.4,0.2l0.4,0.3
	C105.5,93.2,105.6,93.3,105.6,93.5z"/>
<path class="st1" d="M115.8,95.9c-0.3,0-0.7,0.1-0.9,0.7c-0.1,0.3-0.3,0.4-0.5,0.4h-1.3c-0.1,0-0.2,0-0.3-0.1
	c-0.1-0.1-0.1-0.2-0.1-0.3v-4h2.4c0.2,0,0.5-0.1,0.6-0.3c0.2-0.2,0.3-0.4,0.3-0.6s-0.1-0.5-0.3-0.6s-0.4-0.3-0.6-0.3h-2.4v-1.4
	c0-0.2-0.1-0.5-0.3-0.6c-0.4-0.4-0.9-0.3-1.3,0c-0.2,0.2-0.3,0.4-0.3,0.6v1.4h-0.4c-0.3,0-0.5,0.1-0.6,0.3s-0.3,0.4-0.3,0.6
	c0,0.3,0.1,0.5,0.3,0.6c0.2,0.2,0.4,0.3,0.6,0.3h0.4v4c0,0.6,0.2,1.1,0.7,1.6c0.4,0.4,1,0.7,1.6,0.7h1.3c0.6,0,1.2-0.2,1.6-0.7
	c0.4-0.4,0.6-0.9,0.6-1.4c0-0.3-0.1-0.5-0.3-0.7C116.3,96,116,95.9,115.8,95.9z"/>
<path class="st1" d="M123.8,90.8h-1c-0.5,0-1,0.2-1.5,0.6l-0.7,0.6v-0.3c0-0.3-0.1-0.5-0.3-0.7c-0.4-0.4-0.9-0.4-1.3,0
	c-0.2,0.2-0.3,0.4-0.3,0.6v6.2c0,0.3,0.1,0.5,0.3,0.6s0.4,0.3,0.6,0.3s0.5-0.1,0.6-0.3c0.2-0.2,0.3-0.4,0.3-0.6v-3.5l1.8-1.5
	c0.2-0.1,0.3-0.2,0.4-0.2h0.9c0.1,0,0.2,0,0.3,0.1s0.1,0.2,0.1,0.3v0.4c0,0.3,0.1,0.5,0.3,0.6c0.4,0.4,0.9,0.4,1.3,0
	c0.2-0.2,0.3-0.4,0.3-0.7V93c0-0.6-0.2-1.1-0.7-1.6S124.4,90.8,123.8,90.8z"/>
<path class="st1" d="M133.9,91.1c-0.2,0.2-0.3,0.4-0.3,0.6v1l-1.7,3.8h-0.1l-1.6-3.8v-0.9c0-0.3-0.1-0.5-0.3-0.6
	c-0.4-0.3-0.9-0.3-1.3,0c-0.2,0.2-0.3,0.4-0.3,0.6V93l2,4.7c0.2,0.5,0.5,0.6,0.8,0.6l-0.7,1.6h-1.2c-0.2,0-0.5,0.1-0.6,0.3
	c-0.2,0.2-0.3,0.4-0.3,0.6c0,0.3,0.1,0.5,0.3,0.6c0.2,0.2,0.4,0.3,0.6,0.3h1.8c0.4,0,0.7-0.2,0.9-0.6l3.5-8v-1.4
	c0-0.2-0.1-0.5-0.3-0.6C134.8,90.7,134.2,90.7,133.9,91.1z"/>
<path class="st0" d="M144.4,92.3l-5.2-3.1c-0.5-0.3-0.9-0.2-1.2,0.1c-0.2,0.2-0.3,0.4-0.3,0.7c0,0.3,0.1,0.6,0.4,0.8l4.5,2.6
	l-4.5,2.6c-0.3,0.2-0.4,0.4-0.4,0.8c0,0.3,0.1,0.5,0.3,0.7s0.4,0.3,0.6,0.3c0.2,0,0.4-0.1,0.6-0.2l5.2-3c0.3-0.2,0.5-0.5,0.5-0.8
	v-0.5C144.9,92.8,144.8,92.5,144.4,92.3z"/>
<path class="st0" d="M48.4,109h-1.3c-0.3,0-0.5,0.1-0.7,0.3c-0.2,0.2-0.3,0.4-0.3,0.6v1.1c0,0.2,0.1,0.5,0.3,0.6
	c0.2,0.2,0.4,0.3,0.6,0.3h1.3c0.3,0,0.5-0.1,0.6-0.3c0.2-0.2,0.3-0.4,0.3-0.6v-1.1c0-0.3-0.1-0.5-0.3-0.6
	C48.8,109.1,48.6,109,48.4,109z"/>
<path class="st0" d="M57.7,109h-1.3c-0.3,0-0.5,0.1-0.7,0.3c-0.2,0.2-0.3,0.4-0.3,0.6v1.1c0,0.2,0.1,0.5,0.3,0.6
	c0.2,0.2,0.4,0.3,0.6,0.3h1.3c0.3,0,0.5-0.1,0.6-0.3c0.2-0.2,0.3-0.4,0.3-0.6v-1.1c0-0.3-0.1-0.5-0.3-0.6
	C58.2,109.1,58,109,57.7,109z"/>
<path class="st0" d="M67.1,109h-1.3c-0.3,0-0.5,0.1-0.7,0.3c-0.2,0.2-0.3,0.4-0.3,0.6v1.1c0,0.2,0.1,0.5,0.3,0.6
	c0.2,0.2,0.4,0.3,0.6,0.3H67c0.3,0,0.5-0.1,0.6-0.3c0.2-0.2,0.3-0.4,0.3-0.6v-1.1c0-0.3-0.1-0.5-0.3-0.6
	C67.5,109.1,67.3,109,67.1,109z"/>
<path class="st0" d="M155.2,41.8H40.7c-7.4,0-13.4,6-13.4,13.4v76.1c0,7.4,6,13.4,13.4,13.4h45.8L79.3,174c-0.1,0.4,0,0.9,0.3,1.2
	s0.7,0.6,1.1,0.6H118c0.4,0,0.9-0.2,1.1-0.6c0.3-0.4,0.4-0.8,0.3-1.2l-7.2-29.3h43.2c7.4,0,13.4-6,13.4-13.4v-76
	C168.7,47.9,162.6,41.8,155.2,41.8z M109.2,145.5l6.8,27.6H82.4l6.8-27.6c0.1-0.2,0-0.5,0-0.7h20C109.2,145,109.2,145.3,109.2,145.5
	z M155.2,141.9H40.7c-5.8,0-10.6-4.7-10.6-10.6V130h135.7v1.4C165.8,137.2,161,141.9,155.2,141.9z M165.8,127.1H30.1V55.3
	c0-5.8,4.7-10.6,10.6-10.6h114.6c5.8,0,10.6,4.7,10.6,10.6v71.8H165.8z"/>
<path class="st0" d="M49.1,29.5c14.8-10.2,32.1-15.7,50.2-15.7c19,0,37.2,6,52.4,17.3c0.3,0.2,0.6,0.3,0.9,0.3
	c0.5,0,0.9-0.2,1.2-0.6c0.5-0.7,0.4-1.6-0.3-2.1C137.7,17,118.9,10.9,99.3,10.9c-18.7,0-36.6,5.6-51.9,16.2
	c-0.7,0.5-0.9,1.4-0.4,2.1S48.4,30,49.1,29.5z"/>
<path class="st0" d="M15.5,70c-0.8-0.3-1.6,0.1-1.9,0.9C10,80.8,8.1,91.3,8.1,102c0,7.4,0.9,14.7,2.6,21.8c0.2,0.7,0.8,1.1,1.5,1.1
	c0.1,0,0.2,0,0.4,0c0.8-0.2,1.3-1,1.1-1.8c-1.7-6.9-2.5-14-2.5-21.1c0-10.3,1.8-20.5,5.3-30.1C16.7,71.1,16.3,70.2,15.5,70z"/>
<path class="st0" d="M184.9,70.9c-0.3-0.8-1.1-1.2-1.9-0.9c-0.8,0.3-1.2,1.1-0.9,1.9c3.5,9.6,5.3,19.8,5.3,30.1
	c0,7.1-0.9,14.2-2.5,21.1c-0.2,0.8,0.3,1.6,1.1,1.8c0.1,0,0.2,0,0.4,0c0.7,0,1.3-0.5,1.5-1.1c1.7-7.1,2.6-14.4,2.6-21.8
	C190.4,91.3,188.5,80.8,184.9,70.9z"/>
<path class="st0" d="M68.2,184.5c-14.1-5.3-26.7-14.2-36.4-25.8c-0.5-0.6-1.5-0.7-2.1-0.2s-0.7,1.5-0.2,2.1
	c10.1,12,23.1,21.2,37.7,26.7c0.2,0.1,0.4,0.1,0.5,0.1c0.6,0,1.2-0.4,1.4-1C69.4,185.6,69,184.8,68.2,184.5z"/>
<path class="st0" d="M165.3,160.3c-9.6,10.9-21.9,19.4-35.5,24.4c-0.8,0.3-1.2,1.2-0.9,1.9c0.2,0.6,0.8,1,1.4,1c0.2,0,0.3,0,0.5-0.1
	c14.1-5.2,26.8-13.9,36.7-25.2c0.5-0.6,0.5-1.6-0.1-2.1C166.8,159.6,165.9,159.7,165.3,160.3z"/>
</svg>
